<svg id="nmtafe_logo" class="site__logo" data-name="NM TAFE logo" xmlns="http://www.w3.org/2000/svg"
     viewBox="130 0 275 105.74" aria-labelledby="site__logo-title" role="group">
    <defs>
        <style>
            .cls-1 {
            fill: #fff;
            }

            .cls-2 {
            fill: #d9282d;
            }

            .cls-3 {
            fill: #414142;
            }

            .cls-4, .cls-5 {
            fill: #231f20;
            }

            .cls-5 {
            fill-rule: evenodd;
            }

        </style>
    </defs>
    <title id="site__logo-title">North Metro TAFE</title>
    <g>
        <path class="cls-1" d="M143.74,43.28l-3.59,3,23.9,57.13,38.37-19.66V9.05l-9.06-6.69L145,42.21Z"
              transform="translate(0 0)" shape-rendering="geometricPrecision"></path>
        <polygon class="cls-2" points="195.54 70 199.22 70 197.38 64.28 195.54 70"></polygon>
        <polygon class="cls-2" points="164.34 54.35 168.86 54.35 166.62 46.11 164.34 54.35"></polygon>
        <path class="cls-2"
              d="M200.41,73.63l-.85-2.48h-4.42l-.84,2.48H193l3.47-10.3h1.8l3.48,10.3Zm-11.62,0-2.13-9.21-2.14,9.21h-1.91l-2.67-10.3h1.3l2.35,9,2.14-9h1.86l2.14,9,2.35-9h1.3l-2.72,10.3Zm-12-31.42h12.49v3.93H181.2v4.2h7.44v3.93H181.2v7.64h-4.43ZM171,61.88l-1.06-3.82h-6.58l-1.06,3.82h-4.61l6-19.67h5.91l6,19.67Zm19.84,0V42.21h11.6V9.05l-9.06-6.69L145,42.21h13.71v3.93h-5.29V61.88H149V46.14h-5.28V43.27l-3.59,3,23.9,57.13,38.37-19.65V61.88Z"
              transform="translate(0 0)"></path>
        <rect class="cls-2" x="195.25" y="53.67" width="7.17" height="4.28"></rect>
        <rect class="cls-2" x="195.25" y="46.14" width="7.17" height="3.6"></rect>
        <polygon class="cls-3"
                 points="223.88 33.85 223.88 45.97 219.92 45.97 219.92 27.54 225.01 27.54 231.07 40.24 231.07 27.54 235.03 27.54 235.03 45.97 229.92 45.97 223.88 33.85"></polygon>
        <path class="cls-3"
              d="M246.13,40.9V37.56c0-1.27-.67-2-2.11-2a1.79,1.79,0,0,0-2.05,2V40.9c0,1.28.66,2,2.1,2s2.1-.72,2.1-2M238,40.8V37.67c0-2.77,1.3-5.45,6.09-5.45s6.09,2.68,6.09,5.45V40.8c0,2.76-1.3,5.45-6.09,5.45S238,43.56,238,40.8"
              transform="translate(0 0)"></path>
        <path class="cls-3"
              d="M257,37.75V46h-4V32.47h3.28l.28,1.3a13.25,13.25,0,0,1,3.62-1.57l.34,3.76A19.77,19.77,0,0,0,257,37.73"
              transform="translate(0 0)"></path>
        <path class="cls-3"
              d="M267.08,46.25c-2.59,0-4.08-1-4.08-3.46V35.7h-1.82V32.47H263V29.25l4-.55v3.82h3.08l-.23,3.21H267v6.53c0,.56.34.75.83.75a5.54,5.54,0,0,0,1.67-.25l.46,3a9.6,9.6,0,0,1-2.86.5"
              transform="translate(0 0)"></path>
        <path class="cls-3"
              d="M280.38,46V37.06a.83.83,0,0,0-.71-1,.53.53,0,0,0-.25,0,8.54,8.54,0,0,0-2.86,1v8.88h-4V27l3.93-.56v7a11.74,11.74,0,0,1,4.78-1.25c2.29,0,3.1,1.72,3.1,4.32v9.43Z"
              transform="translate(0 0)"></path>
        <polygon class="cls-3"
                 points="223.93 63.4 223.66 73.65 219.64 73.65 220.42 55.21 224.57 55.21 229 66.95 233.42 55.21 237.58 55.21 238.35 73.65 234.34 73.65 234.06 63.4 230.85 71.27 227.14 71.27 223.93 63.4"></polygon>
        <path class="cls-3"
              d="M248.45,64.74c0-1-.28-1.72-1.67-1.72s-1.82.77-1.82,1.72v.57h3.49ZM245,68.31v.38c0,1.56.61,2,2.44,2a15.87,15.87,0,0,0,4.1-.59l.57,3a16.17,16.17,0,0,1-5.07.87c-4.36,0-6-2.16-6-5.49V65.29c0-2.87,1.31-5.4,5.74-5.4s5.46,2.66,5.46,5.6v2.82Z"
              transform="translate(0 0)"></path>
        <path class="cls-3"
              d="M259.63,73.93c-2.57,0-4.07-1-4.07-3.46v-7.1h-1.83V60.19h1.83V56.93l4-.55V60.2h3.08l-.23,3.2h-2.87v6.54c0,.55.34.75.84.75a5.86,5.86,0,0,0,1.66-.25l.47,3a9.66,9.66,0,0,1-2.87.49"
              transform="translate(0 0)"></path>
        <path class="cls-3"
              d="M269.06,65.43v8.22h-4V60.19h3.32l.28,1.3a13,13,0,0,1,3.62-1.58l.34,3.77a19.22,19.22,0,0,0-3.58,1.77"
              transform="translate(0 0)"></path>
        <path class="cls-3"
              d="M282.11,68.58V65.23c0-1.27-.67-2-2.1-2s-2.11.72-2.11,2v3.35c0,1.27.66,2,2.11,2s2.1-.72,2.1-2m-8.19-.11V65.34c0-2.76,1.3-5.45,6.09-5.45s6.08,2.69,6.08,5.45v3.13c0,2.77-1.3,5.46-6.08,5.46s-6.09-2.69-6.09-5.46"
              transform="translate(0 0)"></path>
        <path class="cls-3"
              d="M293,70.13a12.92,12.92,0,0,0,2.55.34,1.33,1.33,0,0,0,1.45-1.2,1.13,1.13,0,0,0,0-.32V64.87c0-1-.39-1.52-1.44-1.52A4.47,4.47,0,0,0,293,64.41ZM301,69c0,3.18-1.39,5-4.54,5a16.54,16.54,0,0,1-3.44-.36v5.56l-4,.56V60.19h3.12l.42,1.08a8.62,8.62,0,0,1,4.15-1.36c2.74,0,4.27,1.69,4.27,5Z"
              transform="translate(0 0)"></path>
        <path class="cls-3"
              d="M311.37,68.58V65.23c0-1.27-.66-2-2.1-2s-2.1.72-2.1,2v3.35c0,1.27.67,2,2.1,2s2.1-.72,2.1-2m-8.19-.11V65.34c0-2.76,1.31-5.45,6.09-5.45s6.09,2.69,6.09,5.45v3.13c0,2.77-1.3,5.46-6.09,5.46s-6.09-2.69-6.09-5.46"
              transform="translate(0 0)"></path>
        <polygon class="cls-3"
                 points="318.27 73.65 318.27 54.66 322.26 54.11 322.26 73.65 318.27 73.65"></polygon>
        <path class="cls-3" d="M325.85,60.19h4V73.67h-4Zm0-5.92h4V58.5h-4Z" transform="translate(0 0)"></path>
        <path class="cls-3"
              d="M337.94,73.93c-2.57,0-4.07-1-4.07-3.46v-7.1h-1.82V60.19h1.82V56.93l4-.55V60.2h3.08l-.23,3.2h-2.87v6.54c0,.55.33.75.83.75a5.86,5.86,0,0,0,1.66-.25l.47,3a9.6,9.6,0,0,1-2.87.49"
              transform="translate(0 0)"></path>
        <path class="cls-3"
              d="M349.9,68.79H348c-.86,0-1.2.22-1.2,1s.31,1,1.08,1a4.58,4.58,0,0,0,2-.47Zm.72,4.85-.28-.86a8.29,8.29,0,0,1-3.82,1.14c-2.5,0-3.52-1.8-3.52-4.1,0-2.72,1.24-3.83,4-3.83h2.87V65c0-1.38-.25-1.85-2.38-1.85a18.8,18.8,0,0,0-3.66.39l-.52-3a18.83,18.83,0,0,1,4.84-.66c4.67,0,5.74,1.4,5.74,5.14v8.6Z"
              transform="translate(0 0)"></path>
        <path class="cls-3"
              d="M365.06,73.65V64.74a.86.86,0,0,0-.73-1h-.23a7.81,7.81,0,0,0-2.86,1v8.91h-4V60.19h3l.41,1a13.9,13.9,0,0,1,5.38-1.3c2.29,0,3.09,1.71,3.09,4.31v9.45Z"
              transform="translate(0 0)"></path>
    </g>
</svg>