<?xml version="1.0" encoding="UTF-8"?>
<svg width="512px" height="512px" viewBox="0 0 512 512" version="1.1" xmlns="http://www.w3.org/2000/svg" xmlns:xlink="http://www.w3.org/1999/xlink">
    <title>sassy-icon</title>
    <g id="Page-1" stroke="none" stroke-width="1" fill="none" fill-rule="evenodd">
        <g id="sassy-icon" fill-rule="nonzero">
            <circle id="Oval" fill="#68D391" cx="256" cy="256" r="256"></circle>
            <path d="M88.734,344.731 L256.003,512 C397.386,512 512,397.384 512,256 C512,255.76 512,255.52 512,255.28 L416.157,158.835 L88.734,344.731 Z" id="Path" fill="#2F855A"></path>
            <path d="M329.852,123.125 C300.717,123.125 273.965,133.325 252.972,150.349 C241.597,141.7 227.403,136.566 212.011,136.566 C174.599,136.566 144.27,166.895 144.27,204.308 L144.27,204.313 C99.62,204.77 63.565,241.107 63.565,285.865 C63.565,330.908 100.079,367.422 145.122,367.422 L329.853,367.422 C397.314,367.422 452.001,312.734 452.001,245.274 C452.001,177.813 397.312,123.125 329.852,123.125 Z" id="Path" fill="#FFFFFF"></path>
            <path d="M329.852,367.422 C397.313,367.422 452,312.734 452,245.274 C452,177.813 397.312,123.126 329.852,123.126 C300.717,123.126 273.965,133.326 252.972,150.35 L252.972,367.422 L329.852,367.422 Z" id="Path" fill="#000000"></path>
            <g id="Group" transform="translate(102.383000, 234.065000)">
                <path d="M0,78.221 L12.209,60.913 C18.65,67.353 28.578,72.72 40.787,72.72 C48.703,72.72 53.535,69.634 53.535,65.341 C53.535,53.131 2.818,62.926 2.818,28.444 C2.818,13.417 15.564,2.84217094e-14 38.507,2.84217094e-14 C52.862,2.84217094e-14 65.341,4.293 74.866,12.478 L62.255,28.981 C54.741,22.809 44.946,19.723 36.091,19.723 C29.382,19.723 26.431,22.407 26.431,26.163 C26.431,37.568 77.013,29.249 77.013,62.523 C77.013,80.502 63.73,92.443 39.714,92.443 C21.601,92.442 8.99,86.808 0,78.221 L0,78.221 Z" id="Path" fill="#000000"></path>
                <path d="M125.445,90.832 L125.445,84.392 C121.42,89.223 113.638,92.442 105.32,92.442 C95.39,92.442 83.047,85.734 83.047,71.109 C83.047,55.411 95.391,50.313 105.32,50.313 C113.906,50.313 121.554,52.997 125.445,57.827 L125.445,50.045 C125.445,44.41 120.615,40.653 112.297,40.653 C105.856,40.653 99.149,43.068 93.914,47.496 L86.535,34.481 C94.853,27.37 105.99,24.418 115.918,24.418 C131.482,24.418 146.107,30.188 146.107,50.313 L146.107,90.833 L125.445,90.833 L125.445,90.832 Z M125.445,74.195 L125.445,68.426 C123.299,65.474 118.468,63.864 113.906,63.864 C108.406,63.864 103.576,66.279 103.576,71.378 C103.576,76.476 108.406,78.891 113.906,78.891 C118.469,78.891 123.299,77.281 125.445,74.195 L125.445,74.195 Z" id="Shape" fill="#000000"></path>
                <g transform="translate(156.972000, 0.000000)" fill="#FFFFFF">
                    <path d="M42.397,90.832 L42.397,84.392 C38.372,89.223 30.59,92.442 22.272,92.442 C12.344,92.442 0,85.734 0,71.109 C0,55.411 12.344,50.313 22.272,50.313 C30.86,50.313 38.506,52.997 42.397,57.827 L42.397,50.045 C42.397,44.41 37.567,40.653 29.248,40.653 C22.809,40.653 16.1,43.068 10.867,47.496 L3.488,34.481 C11.806,27.37 22.943,24.418 32.871,24.418 C48.435,24.418 63.059,30.188 63.059,50.313 L63.059,90.833 L42.397,90.833 L42.397,90.832 Z M42.397,74.195 L42.397,68.426 C40.25,65.474 35.42,63.864 30.86,63.864 C25.358,63.864 20.528,66.279 20.528,71.378 C20.528,76.476 25.358,78.891 30.86,78.891 C35.42,78.891 40.25,77.281 42.397,74.195 L42.397,74.195 Z" id="Shape"></path>
                    <path d="M72.18,78.221 L84.389,60.913 C90.828,67.353 100.758,72.72 112.967,72.72 C120.883,72.72 125.713,69.634 125.713,65.341 C125.713,53.131 74.996,62.926 74.996,28.444 C74.996,13.417 87.742,0 110.685,0 C125.042,0 137.519,4.293 147.046,12.478 L134.433,28.981 C126.919,22.809 117.126,19.723 108.271,19.723 C101.562,19.723 98.611,22.407 98.611,26.163 C98.611,37.568 149.193,29.249 149.193,62.523 C149.193,80.502 135.91,92.443 111.892,92.443 C93.782,92.442 81.168,86.808 72.18,78.221 L72.18,78.221 Z" id="Path"></path>
                </g>
            </g>
        </g>
    </g>
</svg>